# xmcd
#
# Track frame offsets:
#     150
#     36070
#     57111
#     99076
#     140420
#     177102
#     194129
#     228474
#     259805
#     282765
# Disc length: 4440 seconds
# Revision: 2
# Processed by: cddbd v1.5.2PL0 Copyright (c) Steve Scherf et al.
#
# Submitted via: libkcddb 0.31
#
DISCID=8711560a
DTITLE=Hawkwind - Live '74
DYEAR=2006
DGENRE=Space
TTITLE0=Brainbox Pollution
TTITLE1=You Know You’re Only Dreaming
TTITLE2=Brainstorm
TTITLE3=Seven By Seven
TTITLE4=You’d Better Believe It
TTITLE5=The Psychedelic Warlords (Disappear In Smoke)
TTITLE6=D-Rider
TTITLE7=Master Of The Universe
TTITLE8=Welcome To The Future
TTITLE9=(Cactus Data Shield data)
EXTD=The Chicago Auditorium 21 March 1974
EXTT0=
EXTT1=
EXTT2=
EXTT3=
EXTT4=
EXTT5=
EXTT6=
EXTT7=
EXTT8=
EXTT9=http://en.wikipedia.org/wiki/Copy_control
PLAYORDER=
